<svg width="14" height="16" viewBox="0 0 14 16" fill="none" xmlns="http://www.w3.org/2000/svg">
<path fill-rule="evenodd" clip-rule="evenodd" d="M0.333984 2.75C0.333984 2.15326 0.597377 1.58097 1.06622 1.15901C1.53506 0.737053 2.17094 0.5 2.83398 0.5H11.1673C11.8304 0.5 12.4662 0.737053 12.9351 1.15901C13.4039 1.58097 13.6673 2.15326 13.6673 2.75V14.75C13.6672 14.8913 13.6228 15.0296 13.5392 15.1492C13.4555 15.2687 13.3361 15.3645 13.1946 15.4257C13.0531 15.4868 12.8953 15.5107 12.7394 15.4947C12.5834 15.4786 12.4357 15.4233 12.3132 15.335L10.7507 14.21L9.18815 15.335C9.02808 15.4504 8.82633 15.5086 8.62152 15.4985C8.41672 15.4884 8.22325 15.4107 8.07815 15.2802L7.00065 14.3105L5.92315 15.2802C5.77815 15.4108 5.58474 15.4887 5.37994 15.4989C5.17513 15.5092 4.97333 15.4511 4.81315 15.3357L3.25065 14.21L1.68815 15.335C1.56563 15.4233 1.41789 15.4786 1.26195 15.4947C1.10601 15.5107 0.948207 15.4868 0.806708 15.4257C0.665209 15.3645 0.545768 15.2687 0.462136 15.1492C0.378505 15.0296 0.334082 14.8913 0.333984 14.75V2.75ZM2.83398 2C2.61297 2 2.40101 2.07902 2.24473 2.21967C2.08845 2.36032 2.00065 2.55109 2.00065 2.75V13.19L2.72982 12.665C2.87762 12.5585 3.06131 12.5005 3.25065 12.5005C3.43999 12.5005 3.62368 12.5585 3.77148 12.665L5.27148 13.745L6.41148 12.7197C6.56776 12.5791 6.77968 12.5002 7.00065 12.5002C7.22162 12.5002 7.43354 12.5791 7.58982 12.7197L8.72898 13.745L10.2298 12.665C10.3776 12.5585 10.5613 12.5005 10.7507 12.5005C10.94 12.5005 11.1237 12.5585 11.2715 12.665L12.0007 13.19V2.75C12.0007 2.55109 11.9129 2.36032 11.7566 2.21967C11.6003 2.07902 11.3883 2 11.1673 2H2.83398ZM3.66732 5.75C3.66732 5.55109 3.75512 5.36032 3.9114 5.21967C4.06768 5.07902 4.27964 5 4.50065 5H9.50065C9.72166 5 9.93363 5.07902 10.0899 5.21967C10.2462 5.36032 10.334 5.55109 10.334 5.75C10.334 5.94891 10.2462 6.13968 10.0899 6.28033C9.93363 6.42098 9.72166 6.5 9.50065 6.5H4.50065C4.27964 6.5 4.06768 6.42098 3.9114 6.28033C3.75512 6.13968 3.66732 5.94891 3.66732 5.75ZM4.50065 8C4.27964 8 4.06768 8.07902 3.9114 8.21967C3.75512 8.36032 3.66732 8.55109 3.66732 8.75C3.66732 8.94891 3.75512 9.13968 3.9114 9.28033C4.06768 9.42098 4.27964 9.5 4.50065 9.5H7.00065C7.22166 9.5 7.43363 9.42098 7.58991 9.28033C7.74619 9.13968 7.83398 8.94891 7.83398 8.75C7.83398 8.55109 7.74619 8.36032 7.58991 8.21967C7.43363 8.07902 7.22166 8 7.00065 8H4.50065Z" fill="#413D56"/>
</svg>
